<svg width="660" height="400" viewBox="0 0 660 400" fill="none" xmlns="http://www.w3.org/2000/svg">
  <defs>
    <linearGradient id="bgGradient" x1="0" y1="0" x2="660" y2="400" gradientUnits="userSpaceOnUse">
      <stop offset="0%" stop-color="#2563eb"/>
      <stop offset="50%" stop-color="#3b82f6"/>
      <stop offset="100%" stop-color="#1d4ed8"/>
    </linearGradient>
    <linearGradient id="accentGradient" x1="0" y1="0" x2="660" y2="0" gradientUnits="userSpaceOnUse">
      <stop offset="0%" stop-color="#60a5fa" stop-opacity="0.4"/>
      <stop offset="50%" stop-color="#93c5fd" stop-opacity="0.5"/>
      <stop offset="100%" stop-color="#60a5fa" stop-opacity="0.4"/>
    </linearGradient>
    <radialGradient id="glowGradient" cx="50%" cy="50%" r="50%">
      <stop offset="0%" stop-color="#ffffff" stop-opacity="0.3"/>
      <stop offset="100%" stop-color="#3b82f6" stop-opacity="0"/>
    </radialGradient>
    <linearGradient id="iconGradient" x1="0" y1="0" x2="80" y2="80" gradientUnits="userSpaceOnUse">
      <stop offset="0%" stop-color="#ffffff"/>
      <stop offset="100%" stop-color="#e0e7ff"/>
    </linearGradient>
  </defs>
  
  <rect width="660" height="400" fill="url(#bgGradient)"/>
  
  <rect width="660" height="400" fill="url(#accentGradient)"/>
  
  <ellipse cx="180" cy="170" rx="80" ry="80" fill="url(#glowGradient)"/>
  <ellipse cx="480" cy="170" rx="80" ry="80" fill="url(#glowGradient)"/>
  
  <g opacity="0.15">
    <line x1="0" y1="50" x2="660" y2="50" stroke="#ffffff" stroke-width="1"/>
    <line x1="0" y1="100" x2="660" y2="100" stroke="#ffffff" stroke-width="1"/>
    <line x1="0" y1="150" x2="660" y2="150" stroke="#ffffff" stroke-width="1"/>
    <line x1="0" y1="200" x2="660" y2="200" stroke="#ffffff" stroke-width="1"/>
    <line x1="0" y1="250" x2="660" y2="250" stroke="#ffffff" stroke-width="1"/>
    <line x1="0" y1="300" x2="660" y2="300" stroke="#ffffff" stroke-width="1"/>
    <line x1="0" y1="350" x2="660" y2="350" stroke="#ffffff" stroke-width="1"/>
    <line x1="50" y1="0" x2="50" y2="400" stroke="#ffffff" stroke-width="1"/>
    <line x1="100" y1="0" x2="100" y2="400" stroke="#ffffff" stroke-width="1"/>
    <line x1="150" y1="0" x2="150" y2="400" stroke="#ffffff" stroke-width="1"/>
    <line x1="200" y1="0" x2="200" y2="400" stroke="#ffffff" stroke-width="1"/>
    <line x1="250" y1="0" x2="250" y2="400" stroke="#ffffff" stroke-width="1"/>
    <line x1="300" y1="0" x2="300" y2="400" stroke="#ffffff" stroke-width="1"/>
    <line x1="350" y1="0" x2="350" y2="400" stroke="#ffffff" stroke-width="1"/>
    <line x1="400" y1="0" x2="400" y2="400" stroke="#ffffff" stroke-width="1"/>
    <line x1="450" y1="0" x2="450" y2="400" stroke="#ffffff" stroke-width="1"/>
    <line x1="500" y1="0" x2="500" y2="400" stroke="#ffffff" stroke-width="1"/>
    <line x1="550" y1="0" x2="550" y2="400" stroke="#ffffff" stroke-width="1"/>
    <line x1="600" y1="0" x2="600" y2="400" stroke="#ffffff" stroke-width="1"/>
  </g>
  
  <g transform="translate(180, 170)">
    <rect x="-35" y="-35" width="70" height="70" rx="14" fill="url(#iconGradient)" opacity="0.5"/>
    <path d="M-15 -10L0 -15L15 -10V0L0 15L-15 0V-10Z" fill="#3b82f6" fill-opacity="1"/>
  </g>
  
  <g transform="translate(480, 170)">
    <rect x="-35" y="-35" width="70" height="70" rx="14" fill="url(#iconGradient)" opacity="0.5"/>
    <rect x="-20" y="-20" width="40" height="40" rx="8" fill="#3b82f6" fill-opacity="1"/>
    <rect x="-12" y="-12" width="24" height="4" rx="2" fill="white"/>
    <rect x="-12" y="-4" width="24" height="4" rx="2" fill="white"/>
    <rect x="-12" y="4" width="16" height="4" rx="2" fill="white"/>
  </g>
  
  <g transform="translate(330, 340)">
    <text x="0" y="0" text-anchor="middle" font-family="-apple-system, BlinkMacSystemFont, 'Segoe UI', Roboto, Arial, sans-serif" font-size="18" font-weight="600" fill="white">
      拖拽 iApi 到应用程序文件夹完成安装
    </text>
  </g>
  
  <g transform="translate(330, 365)">
    <text x="0" y="0" text-anchor="middle" font-family="-apple-system, BlinkMacSystemFont, 'Segoe UI', Roboto, Arial, sans-serif" font-size="13" fill="rgba(255, 255, 255, 0.8)">
      Drag iApi to Applications folder to install
    </text>
  </g>
  
  <g transform="translate(330, 50)">
    <rect x="-50" y="-22" width="100" height="44" rx="12" fill="white" fill-opacity="0.95"/>
    <text x="0" y="7" text-anchor="middle" font-family="-apple-system, BlinkMacSystemFont, 'Segoe UI', Roboto, Arial, sans-serif" font-size="22" font-weight="700" fill="#3b82f6">
      iApi
    </text>
  </g>
</svg>
