<svg width="660" height="400" viewBox="0 0 660 400" fill="none" xmlns="http://www.w3.org/2000/svg">
  <defs>
    <linearGradient id="bgGradient" x1="0" y1="0" x2="660" y2="400" gradientUnits="userSpaceOnUse">
      <stop offset="0%" stop-color="#0a0e27"/>
      <stop offset="50%" stop-color="#1a1f3a"/>
      <stop offset="100%" stop-color="#0f1428"/>
    </linearGradient>
    <linearGradient id="accentGradient" x1="0" y1="0" x2="660" y2="0" gradientUnits="userSpaceOnUse">
      <stop offset="0%" stop-color="#3b82f6" stop-opacity="0.1"/>
      <stop offset="50%" stop-color="#60a5fa" stop-opacity="0.15"/>
      <stop offset="100%" stop-color="#3b82f6" stop-opacity="0.1"/>
    </linearGradient>
    <radialGradient id="glowGradient" cx="50%" cy="50%" r="50%">
      <stop offset="0%" stop-color="#3b82f6" stop-opacity="0.2"/>
      <stop offset="100%" stop-color="#3b82f6" stop-opacity="0"/>
    </radialGradient>
  </defs>
  
  <rect width="660" height="400" fill="url(#bgGradient)"/>
  
  <rect width="660" height="400" fill="url(#accentGradient)"/>
  
  <ellipse cx="180" cy="170" rx="100" ry="100" fill="url(#glowGradient)"/>
  <ellipse cx="480" cy="170" rx="100" ry="100" fill="url(#glowGradient)"/>
  
  <g opacity="0.03">
    <line x1="0" y1="50" x2="660" y2="50" stroke="#3b82f6" stroke-width="1"/>
    <line x1="0" y1="100" x2="660" y2="100" stroke="#3b82f6" stroke-width="1"/>
    <line x1="0" y1="150" x2="660" y2="150" stroke="#3b82f6" stroke-width="1"/>
    <line x1="0" y1="200" x2="660" y2="200" stroke="#3b82f6" stroke-width="1"/>
    <line x1="0" y1="250" x2="660" y2="250" stroke="#3b82f6" stroke-width="1"/>
    <line x1="0" y1="300" x2="660" y2="300" stroke="#3b82f6" stroke-width="1"/>
    <line x1="0" y1="350" x2="660" y2="350" stroke="#3b82f6" stroke-width="1"/>
    <line x1="50" y1="0" x2="50" y2="400" stroke="#3b82f6" stroke-width="1"/>
    <line x1="100" y1="0" x2="100" y2="400" stroke="#3b82f6" stroke-width="1"/>
    <line x1="150" y1="0" x2="150" y2="400" stroke="#3b82f6" stroke-width="1"/>
    <line x1="200" y1="0" x2="200" y2="400" stroke="#3b82f6" stroke-width="1"/>
    <line x1="250" y1="0" x2="250" y2="400" stroke="#3b82f6" stroke-width="1"/>
    <line x1="300" y1="0" x2="300" y2="400" stroke="#3b82f6" stroke-width="1"/>
    <line x1="350" y1="0" x2="350" y2="400" stroke="#3b82f6" stroke-width="1"/>
    <line x1="400" y1="0" x2="400" y2="400" stroke="#3b82f6" stroke-width="1"/>
    <line x1="450" y1="0" x2="450" y2="400" stroke="#3b82f6" stroke-width="1"/>
    <line x1="500" y1="0" x2="500" y2="400" stroke="#3b82f6" stroke-width="1"/>
    <line x1="550" y1="0" x2="550" y2="400" stroke="#3b82f6" stroke-width="1"/>
    <line x1="600" y1="0" x2="600" y2="400" stroke="#3b82f6" stroke-width="1"/>
  </g>
  
  <g transform="translate(330, 340)">
    <text x="0" y="0" text-anchor="middle" font-family="-apple-system, BlinkMacSystemFont, 'Segoe UI', Roboto, Arial, sans-serif" font-size="16" font-weight="500" fill="rgba(255, 255, 255, 0.7)">
      拖拽 iApi 到应用程序文件夹完成安装
    </text>
  </g>
  
  <g transform="translate(330, 365)">
    <text x="0" y="0" text-anchor="middle" font-family="-apple-system, BlinkMacSystemFont, 'Segoe UI', Roboto, Arial, sans-serif" font-size="12" fill="rgba(255, 255, 255, 0.4)">
      Drag iApi to Applications folder to install
    </text>
  </g>
  
  <g transform="translate(180, 100)">
    <rect x="-40" y="-40" width="80" height="80" rx="16" fill="url(#iconGradient)" opacity="0.1"/>
  </g>
  
  <g transform="translate(480, 100)">
    <rect x="-40" y="-40" width="80" height="80" rx="16" fill="url(#iconGradient)" opacity="0.1"/>
  </g>
  
  <defs>
    <linearGradient id="iconGradient" x1="0" y1="0" x2="80" y2="80" gradientUnits="userSpaceOnUse">
      <stop offset="0%" stop-color="#3b82f6"/>
      <stop offset="100%" stop-color="#2563eb"/>
    </linearGradient>
  </defs>
</svg>
