<svg width="164" height="314" viewBox="0 0 164 314" fill="none" xmlns="http://www.w3.org/2000/svg">
  <defs>
    <linearGradient id="sidebarGradient" x1="0" y1="0" x2="164" y2="314" gradientUnits="userSpaceOnUse">
      <stop offset="0%" stop-color="#0a0e27"/>
      <stop offset="50%" stop-color="#1a1f3a"/>
      <stop offset="100%" stop-color="#0f1428"/>
    </linearGradient>
    <radialGradient id="sidebarGlow" cx="50%" cy="30%" r="50%">
      <stop offset="0%" stop-color="#3b82f6" stop-opacity="0.2"/>
      <stop offset="100%" stop-color="#3b82f6" stop-opacity="0"/>
    </radialGradient>
  </defs>
  
  <rect width="164" height="314" fill="url(#sidebarGradient)"/>
  
  <ellipse cx="82" cy="100" rx="100" ry="100" fill="url(#sidebarGlow)"/>
  
  <g transform="translate(82, 80)">
    <rect x="-30" y="-30" width="60" height="60" rx="12" fill="#3b82f6"/>
    <path d="M-16 0L0 -8L16 0V8L0 16L-16 8V0Z" fill="white" fill-opacity="0.9"/>
    <path d="M0 -8V16M-16 0L0 8L16 0" stroke="white" stroke-width="2" stroke-opacity="0.5"/>
  </g>
  
  <text x="82" y="150" text-anchor="middle" font-family="-apple-system, BlinkMacSystemFont, 'Segoe UI', Roboto, Arial, sans-serif" font-size="24" font-weight="700" fill="white">
    iApi
  </text>
  
  <text x="82" y="170" text-anchor="middle" font-family="-apple-system, BlinkMacSystemFont, 'Segoe UI', Roboto, Arial, sans-serif" font-size="11" fill="rgba(255, 255, 255, 0.6)">
    API 调试工具
  </text>
  
  <g opacity="0.05">
    <line x1="20" y1="200" x2="144" y2="200" stroke="#3b82f6" stroke-width="1"/>
    <line x1="20" y1="220" x2="144" y2="220" stroke="#3b82f6" stroke-width="1"/>
    <line x1="20" y1="240" x2="144" y2="240" stroke="#3b82f6" stroke-width="1"/>
    <line x1="20" y1="260" x2="144" y2="260" stroke="#3b82f6" stroke-width="1"/>
    <line x1="20" y1="280" x2="144" y2="280" stroke="#3b82f6" stroke-width="1"/>
  </g>
  
  <rect x="163" y="0" width="1" height="314" fill="#3b82f6" opacity="0.2"/>
</svg>
